<?xml version="1.0" encoding="UTF-8"?>
<svg id="Layer_1" data-name="Layer 1" xmlns="http://www.w3.org/2000/svg" viewBox="0 0 1000 1000">
  <defs>
    <style>
      .cls-1 {
        fill: #010101;
        stroke-width: 0px;
      }
    </style>
  </defs>
  <path class="cls-1" d="m500,833.02l-7.98-5.47c-.87-.61-92.15-63.17-182.13-149.59-53.1-51.11-95.53-100.48-126.08-146.73-38.87-59.26-58.66-114.19-58.66-162.87,0-110.98,90.07-201.39,200.78-201.39,41.04,0,80.78,12.67,114.71,36.7,24.56,17.44,44.69,39.74,59.35,65.25,14.66-25.68,34.79-47.98,59.35-65.25,33.93-24.03,73.67-36.7,114.71-36.7,110.63,0,200.78,90.41,200.78,201.39v.09c-.43,48.5-20.39,102.91-59.35,162-30.63,46.33-72.89,95.62-125.99,146.9-89.81,86.77-180.65,149.59-181.52,150.2l-7.98,5.47ZM325.94,195.09c-95.27,0-172.76,77.74-172.76,173.28,0,43.12,18.13,92.58,53.97,147.07,29.24,44.51,70.37,92.32,121.91,141.95,73.06,70.2,147.07,124.43,170.93,141.35,23.86-17.01,97.44-71.58,170.33-141.95,51.45-49.81,92.32-97.44,121.74-141.95,35.84-54.49,54.32-103.6,54.58-146.47,0-95.53-77.48-173.1-172.76-173.1-70.54,0-135.19,44.86-160.96,111.58l-13.1,34.01-12.84-34.01c-25.86-66.73-90.41-111.76-161.04-111.76Z"/>
</svg>